REM DIRINDEX 1\8,1\2\11,1\3\12,1\3\14,1\5\15,1\5\16,1\6\17,1\6\18,1\4\19,1\4\20,1\4\21,1\4\22,1\7\23,1\7\24,1\7\25,1\2\9\26,1\2\9\27,1\2\10\28,1\2\10\29,1\2\10\30,1\2\10\31,1\2\10\32,1\3\13\33,1\3\13\34,1\3\13\35
REM DIRNAME folder01,folder02,folder03,folder04,folder05,folder06,folder07,folder08,folder09,folder10,folder11,folder12,folder13,folder14,folder15,folder16,folder17,folder18,folder19,folder20,folder21,folder22,folder23,folder24,folder25,folder26,folder27,folder28,folder29,folder30,folder31,folder32,folder33,folder34,folder35
TITLE ""
FILE "1-17 017_UNIT2_SET3.mp3" MP3
  TRACK 01 AUDIO
    TITLE "11:cjc123_0823"
    INDEX 01 00:00:00
  TRACK 02 AUDIO
    TITLE "0:"
    INDEX 01 00:02:43
  TRACK 03 AUDIO
    TITLE "28:cjc123_0824"
    INDEX 01 00:03:15
  TRACK 04 AUDIO
    TITLE "0:"
    INDEX 01 00:04:23
  TRACK 05 AUDIO
    TITLE "29:cjc123_0825"
    INDEX 01 00:04:38
  TRACK 06 AUDIO
    TITLE "0:"
    INDEX 01 00:05:57
  TRACK 07 AUDIO
    TITLE "30:cjc123_0826"
    INDEX 01 00:05:61
  TRACK 08 AUDIO
    TITLE "0:"
    INDEX 01 00:06:67
  TRACK 09 AUDIO
    TITLE "31:cjc123_0827"
    INDEX 01 00:07:60
  TRACK 10 AUDIO
    TITLE "0:"
    INDEX 01 00:11:72
  TRACK 11 AUDIO
    TITLE "32:cjc123_0828"
    INDEX 01 00:12:26
  TRACK 12 AUDIO
    TITLE "0:"
    INDEX 01 00:16:53
  TRACK 13 AUDIO
    TITLE "28:cjc123_0829"
    INDEX 01 00:17:02
  TRACK 14 AUDIO
    TITLE "0:"
    INDEX 01 00:18:29
  TRACK 15 AUDIO
    TITLE "29:cjc123_0830"
    INDEX 01 00:18:46
  TRACK 16 AUDIO
    TITLE "0:"
    INDEX 01 00:19:67
  TRACK 17 AUDIO
    TITLE "30:cjc123_0831"
    INDEX 01 00:20:00
  TRACK 18 AUDIO
    TITLE "0:"
    INDEX 01 00:21:25
  TRACK 19 AUDIO
    TITLE "31:cjc123_0832"
    INDEX 01 00:22:05
  TRACK 20 AUDIO
    TITLE "0:"
    INDEX 01 00:25:62
  TRACK 21 AUDIO
    TITLE "32:cjc123_0833"
    INDEX 01 00:26:17
  TRACK 22 AUDIO
    TITLE "0:"
    INDEX 01 00:30:48
  TRACK 23 AUDIO
    TITLE "28:cjc123_0834"
    INDEX 01 00:31:04
  TRACK 24 AUDIO
    TITLE "0:"
    INDEX 01 00:32:23
  TRACK 25 AUDIO
    TITLE "29:cjc123_0835"
    INDEX 01 00:32:41
  TRACK 26 AUDIO
    TITLE "0:"
    INDEX 01 00:33:52
  TRACK 27 AUDIO
    TITLE "30:cjc123_0836"
    INDEX 01 00:33:66
  TRACK 28 AUDIO
    TITLE "0:"
    INDEX 01 00:35:02
  TRACK 29 AUDIO
    TITLE "31:cjc123_0837"
    INDEX 01 00:35:47
  TRACK 30 AUDIO
    TITLE "0:"
    INDEX 01 00:40:34
  TRACK 31 AUDIO
    TITLE "32:cjc123_0838"
    INDEX 01 00:40:70
  TRACK 32 AUDIO
    TITLE "0:"
    INDEX 01 00:45:12
  TRACK 33 AUDIO
    TITLE "28:cjc123_0839"
    INDEX 01 00:45:59
  TRACK 34 AUDIO
    TITLE "0:"
    INDEX 01 00:46:74
  TRACK 35 AUDIO
    TITLE "29:cjc123_0840"
    INDEX 01 00:47:21
  TRACK 36 AUDIO
    TITLE "0:"
    INDEX 01 00:48:20
  TRACK 37 AUDIO
    TITLE "30:cjc123_0841"
    INDEX 01 00:48:42
  TRACK 38 AUDIO
    TITLE "0:"
    INDEX 01 00:49:55
  TRACK 39 AUDIO
    TITLE "31:cjc123_0842"
    INDEX 01 00:50:35
  TRACK 40 AUDIO
    TITLE "0:"
    INDEX 01 00:54:01
  TRACK 41 AUDIO
    TITLE "32:cjc123_0843"
    INDEX 01 00:54:34
  TRACK 42 AUDIO
    TITLE "0:"
    INDEX 01 00:58:62
  TRACK 43 AUDIO
    TITLE "28:cjc123_0844"
    INDEX 01 00:59:36
  TRACK 44 AUDIO
    TITLE "0:"
    INDEX 01 01:00:55
  TRACK 45 AUDIO
    TITLE "29:cjc123_0845"
    INDEX 01 01:00:62
  TRACK 46 AUDIO
    TITLE "0:"
    INDEX 01 01:02:30
  TRACK 47 AUDIO
    TITLE "30:cjc123_0846"
    INDEX 01 01:02:34
  TRACK 48 AUDIO
    TITLE "0:"
    INDEX 01 01:03:43
  TRACK 49 AUDIO
    TITLE "31:cjc123_0847"
    INDEX 01 01:04:15
  TRACK 50 AUDIO
    TITLE "0:"
    INDEX 01 01:08:21
  TRACK 51 AUDIO
    TITLE "32:cjc123_0848"
    INDEX 01 01:08:68
  TRACK 52 AUDIO
    TITLE "0:"
    INDEX 01 01:14:17
  TRACK 53 AUDIO
    TITLE "28:cjc123_0849"
    INDEX 01 01:14:61
  TRACK 54 AUDIO
    TITLE "0:"
    INDEX 01 01:16:11
  TRACK 55 AUDIO
    TITLE "29:cjc123_0850"
    INDEX 01 01:16:32
  TRACK 56 AUDIO
    TITLE "0:"
    INDEX 01 01:17:26
  TRACK 57 AUDIO
    TITLE "30:cjc123_0851"
    INDEX 01 01:17:45
  TRACK 58 AUDIO
    TITLE "0:"
    INDEX 01 01:18:68
  TRACK 59 AUDIO
    TITLE "31:cjc123_0852"
    INDEX 01 01:19:60
  TRACK 60 AUDIO
    TITLE "0:"
    INDEX 01 01:24:26
  TRACK 61 AUDIO
    TITLE "32:cjc123_0853"
    INDEX 01 01:25:13
  TRACK 62 AUDIO
    TITLE "0:"
    INDEX 01 01:30:36
  TRACK 63 AUDIO
    TITLE "28:cjc123_0854"
    INDEX 01 01:31:06
  TRACK 64 AUDIO
    TITLE "0:"
    INDEX 01 01:32:04
  TRACK 65 AUDIO
    TITLE "29:cjc123_0855"
    INDEX 01 01:32:13
  TRACK 66 AUDIO
    TITLE "0:"
    INDEX 01 01:33:44
  TRACK 67 AUDIO
    TITLE "30:cjc123_0856"
    INDEX 01 01:33:52
  TRACK 68 AUDIO
    TITLE "0:"
    INDEX 01 01:34:57
  TRACK 69 AUDIO
    TITLE "31:cjc123_0857"
    INDEX 01 01:35:26
  TRACK 70 AUDIO
    TITLE "0:"
    INDEX 01 01:39:04
  TRACK 71 AUDIO
    TITLE "32:cjc123_0858"
    INDEX 01 01:39:41
  TRACK 72 AUDIO
    TITLE "0:"
    INDEX 01 01:42:59
  TRACK 73 AUDIO
    TITLE "28:cjc123_0859"
    INDEX 01 01:43:29
  TRACK 74 AUDIO
    TITLE "0:"
    INDEX 01 01:44:32
  TRACK 75 AUDIO
    TITLE "29:cjc123_0860"
    INDEX 01 01:44:46
  TRACK 76 AUDIO
    TITLE "0:"
    INDEX 01 01:45:61
  TRACK 77 AUDIO
    TITLE "30:cjc123_0861"
    INDEX 01 01:45:71
  TRACK 78 AUDIO
    TITLE "0:"
    INDEX 01 01:47:09
  TRACK 79 AUDIO
    TITLE "31:cjc123_0862"
    INDEX 01 01:47:60
  TRACK 80 AUDIO
    TITLE "0:"
    INDEX 01 01:50:49
  TRACK 81 AUDIO
    TITLE "32:cjc123_0863"
    INDEX 01 01:51:03
  TRACK 82 AUDIO
    TITLE "0:"
    INDEX 01 01:54:50
  TRACK 83 AUDIO
    TITLE "28:cjc123_0864"
    INDEX 01 01:55:18
  TRACK 84 AUDIO
    TITLE "0:"
    INDEX 01 01:56:14
  TRACK 85 AUDIO
    TITLE "29:cjc123_0865"
    INDEX 01 01:56:22
  TRACK 86 AUDIO
    TITLE "0:"
    INDEX 01 01:58:07
  TRACK 87 AUDIO
    TITLE "30:cjc123_0866"
    INDEX 01 01:58:19
  TRACK 88 AUDIO
    TITLE "0:"
    INDEX 01 01:59:12
  TRACK 89 AUDIO
    TITLE "31:cjc123_0867"
    INDEX 01 01:59:59
  TRACK 90 AUDIO
    TITLE "0:"
    INDEX 01 02:03:30
  TRACK 91 AUDIO
    TITLE "32:cjc123_0868"
    INDEX 01 02:03:63
  TRACK 92 AUDIO
    TITLE "0:"
    INDEX 01 02:07:57
  TRACK 93 AUDIO
    TITLE "28:cjc123_0869"
    INDEX 01 02:08:31
  TRACK 94 AUDIO
    TITLE "0:"
    INDEX 01 02:09:26
  TRACK 95 AUDIO
    TITLE "29:cjc123_0870"
    INDEX 01 02:09:50
  TRACK 96 AUDIO
    TITLE "0:"
    INDEX 01 02:10:59
  TRACK 97 AUDIO
    TITLE "30:cjc123_0871"
    INDEX 01 02:10:67
  TRACK 98 AUDIO
    TITLE "0:"
    INDEX 01 02:11:66
  TRACK 99 AUDIO
    TITLE "31:cjc123_0872"
    INDEX 01 02:12:50
  TRACK 100 AUDIO
    TITLE "0:"
    INDEX 01 02:15:31
  TRACK 101 AUDIO
    TITLE "32:cjc123_0873"
    INDEX 01 02:15:70
  TRACK 102 AUDIO
    TITLE "0:"
    INDEX 01 02:19:52
  TRACK 103 AUDIO
    TITLE "28:cjc123_0874"
    INDEX 01 02:20:22
  TRACK 104 AUDIO
    TITLE "0:"
    INDEX 01 02:21:32
  TRACK 105 AUDIO
    TITLE "29:cjc123_0875"
    INDEX 01 02:21:43
  TRACK 106 AUDIO
    TITLE "0:"
    INDEX 01 02:22:72
  TRACK 107 AUDIO
    TITLE "30:cjc123_0876"
    INDEX 01 02:23:05
  TRACK 108 AUDIO
    TITLE "0:"
    INDEX 01 02:24:10
  TRACK 109 AUDIO
    TITLE "31:cjc123_0877"
    INDEX 01 02:24:59
  TRACK 110 AUDIO
    TITLE "0:"
    INDEX 01 02:28:39
  TRACK 111 AUDIO
    TITLE "32:cjc123_0878"
    INDEX 01 02:29:09
  TRACK 112 AUDIO
    TITLE "0:"
    INDEX 01 02:33:35
  TRACK 113 AUDIO
    TITLE "28:cjc123_0879"
    INDEX 01 02:33:66
  TRACK 114 AUDIO
    TITLE "0:"
    INDEX 01 02:35:04
  TRACK 115 AUDIO
    TITLE "29:cjc123_0880"
    INDEX 01 02:35:20
  TRACK 116 AUDIO
    TITLE "0:"
    INDEX 01 02:36:45
  TRACK 117 AUDIO
    TITLE "30:cjc123_0881"
    INDEX 01 02:36:51
  TRACK 118 AUDIO
    TITLE "0:"
    INDEX 01 02:37:44
  TRACK 119 AUDIO
    TITLE "31:cjc123_0882"
    INDEX 01 02:38:18
  TRACK 120 AUDIO
    TITLE "0:"
    INDEX 01 02:41:54
  TRACK 121 AUDIO
    TITLE "32:cjc123_0883"
    INDEX 01 02:42:08
  TRACK 122 AUDIO
    TITLE "0:"
    INDEX 01 02:45:69
  TRACK 123 AUDIO
    TITLE "28:cjc123_0884"
    INDEX 01 02:46:35
  TRACK 124 AUDIO
    TITLE "0:"
    INDEX 01 02:47:47
  TRACK 125 AUDIO
    TITLE "29:cjc123_0885"
    INDEX 01 02:47:60
  TRACK 126 AUDIO
    TITLE "0:"
    INDEX 01 02:48:64
  TRACK 127 AUDIO
    TITLE "30:cjc123_0886"
    INDEX 01 02:48:73
  TRACK 128 AUDIO
    TITLE "0:"
    INDEX 01 02:50:08
  TRACK 129 AUDIO
    TITLE "31:cjc123_0887"
    INDEX 01 02:50:57
  TRACK 130 AUDIO
    TITLE "0:"
    INDEX 01 02:54:66
  TRACK 131 AUDIO
    TITLE "32:cjc123_0888"
    INDEX 01 02:55:28
  TRACK 132 AUDIO
    TITLE "0:"
    INDEX 01 02:58:72
  TRACK 133 AUDIO
    TITLE "28:cjc123_0889"
    INDEX 01 02:59:44
  TRACK 134 AUDIO
    TITLE "0:"
    INDEX 01 03:00:61
  TRACK 135 AUDIO
    TITLE "29:cjc123_0890"
    INDEX 01 03:01:09
  TRACK 136 AUDIO
    TITLE "0:"
    INDEX 01 03:02:38
  TRACK 137 AUDIO
    TITLE "30:cjc123_0891"
    INDEX 01 03:02:42
  TRACK 138 AUDIO
    TITLE "0:"
    INDEX 01 03:03:73
  TRACK 139 AUDIO
    TITLE "31:cjc123_0892"
    INDEX 01 03:04:67
  TRACK 140 AUDIO
    TITLE "0:"
    INDEX 01 03:09:36
  TRACK 141 AUDIO
    TITLE "32:cjc123_0893"
    INDEX 01 03:09:56
  TRACK 142 AUDIO
    TITLE "0:"
    INDEX 01 03:13:66
  TRACK 143 AUDIO
    TITLE "28:cjc123_0894"
    INDEX 01 03:14:40
  TRACK 144 AUDIO
    TITLE "0:"
    INDEX 01 03:15:37
  TRACK 145 AUDIO
    TITLE "29:cjc123_0895"
    INDEX 01 03:15:45
  TRACK 146 AUDIO
    TITLE "0:"
    INDEX 01 03:17:09
  TRACK 147 AUDIO
    TITLE "30:cjc123_0896"
    INDEX 01 03:17:14
  TRACK 148 AUDIO
    TITLE "0:"
    INDEX 01 03:18:10
  TRACK 149 AUDIO
    TITLE "31:cjc123_0897"
    INDEX 01 03:18:55
  TRACK 150 AUDIO
    TITLE "0:"
    INDEX 01 03:22:16
  TRACK 151 AUDIO
    TITLE "32:cjc123_0898"
    INDEX 01 03:22:57
  TRACK 152 AUDIO
    TITLE "0:"
    INDEX 01 03:27:05
